# xmcd
#
# Track frame offsets: 
#        150
#        21282
#        41880
#        61537
#
# Disc length: 1064 seconds
#
# Revision: 2
# Processed by: cddbd v1.4PL0 Copyright (c) Steve Scherf et al.
# Submitted via: ExactAudioCopy v0.90b4
#
DISCID=2b042604
DTITLE=Celine Dion - My Heart Will Go on
DYEAR=1997
DGENRE=Pop
TTITLE0=My Heart Will Go on
TTITLE1=Because You Loved Me
TTITLE2=When I Fall in Love
TTITLE3=Beauty and the Beast
EXTD=
EXTT0=\n\n\n\n\n
EXTT1=
EXTT2=
EXTT3=
PLAYORDER=
